<svg xmlns="http://www.w3.org/2000/svg" viewBox="0 0 220 194" width="220" height="194">
<g fill="none" stroke-linecap="round"><path d="M137.03,74.93 A33,33 0 1 1 137.03,37.07" stroke="#1C2150" stroke-width="11"/><circle cx="121.50" cy="56" r="6.2" fill="#21C29A" stroke="none"/></g>
<g transform="translate(13.38,148.00) scale(0.05200,-0.05200)" fill="#1C2150">
<path transform="translate(0,0)" d="M392 704Q503 704 589.5 649.5Q676 595 715 495H578Q551 550 503.0 577.0Q455 604 392 604Q323 604 269.0 573.0Q215 542 184.5 484.0Q154 426 154 349Q154 272 184.5 214.0Q215 156 269.0 124.5Q323 93 392 93Q455 93 503.0 120.0Q551 147 578 202H715Q676 102 589.5 48.0Q503 -6 392 -6Q294 -6 213.0 39.5Q132 85 84.5 166.0Q37 247 37 349Q37 451 84.5 532.0Q132 613 213.5 658.5Q295 704 392 704Z"/>
<path transform="translate(773.0,0)" d="M38 276Q38 360 75.0 425.0Q112 490 176.0 525.0Q240 560 319 560Q398 560 462.0 525.0Q526 490 563.0 425.0Q600 360 600 276Q600 192 562.0 127.0Q524 62 458.5 26.5Q393 -9 314 -9Q236 -9 173.0 26.5Q110 62 74.0 126.5Q38 191 38 276ZM483 276Q483 336 460.0 377.5Q437 419 399.0 440.0Q361 461 317 461Q273 461 235.5 440.0Q198 419 176.0 377.5Q154 336 154 276Q154 187 199.5 138.5Q245 90 314 90Q358 90 396.5 111.0Q435 132 459.0 174.0Q483 216 483 276Z"/>
<path transform="translate(1411.0,0)" d="M488 471V551H603V-9Q603 -85 571.0 -144.5Q539 -204 478.5 -238.0Q418 -272 334 -272Q222 -272 148.0 -219.5Q74 -167 64 -77H177Q190 -120 232.5 -146.5Q275 -173 334 -173Q403 -173 445.5 -131.0Q488 -89 488 -9V83Q459 44 409.5 17.5Q360 -9 297 -9Q225 -9 165.5 27.5Q106 64 71.5 129.5Q37 195 37 278Q37 361 71.5 425.0Q106 489 165.5 524.5Q225 560 297 560Q361 560 410.5 534.5Q460 509 488 471ZM321 461Q277 461 239.0 439.5Q201 418 177.5 376.5Q154 335 154 278Q154 221 177.5 178.0Q201 135 239.5 112.5Q278 90 321 90Q365 90 403.0 112.0Q441 134 464.5 176.5Q488 219 488 276Q488 333 464.5 375.0Q441 417 403.0 439.0Q365 461 321 461Z"/>
<path transform="translate(2089.0,0)" d="M576 233H155Q160 167 204.0 127.0Q248 87 312 87Q404 87 442 164H565Q540 88 474.5 39.5Q409 -9 312 -9Q233 -9 170.5 26.5Q108 62 72.5 126.5Q37 191 37 276Q37 361 71.5 425.5Q106 490 168.5 525.0Q231 560 312 560Q390 560 451.0 526.0Q512 492 546.0 430.5Q580 369 580 289Q580 258 576 233ZM461 325Q460 388 416.0 426.0Q372 464 307 464Q248 464 206.0 426.5Q164 389 156 325Z"/>
<path transform="translate(2706.0,0)" d="M208 458V153Q208 122 222.5 108.5Q237 95 272 95H342V0H252Q175 0 134.0 36.0Q93 72 93 153V458H28V551H93V688H208V551H342V458Z"/>
<path transform="translate(3078.0,0)" d="M38 276Q38 360 75.0 425.0Q112 490 176.0 525.0Q240 560 319 560Q398 560 462.0 525.0Q526 490 563.0 425.0Q600 360 600 276Q600 192 562.0 127.0Q524 62 458.5 26.5Q393 -9 314 -9Q236 -9 173.0 26.5Q110 62 74.0 126.5Q38 191 38 276ZM483 276Q483 336 460.0 377.5Q437 419 399.0 440.0Q361 461 317 461Q273 461 235.5 440.0Q198 419 176.0 377.5Q154 336 154 276Q154 187 199.5 138.5Q245 90 314 90Q358 90 396.5 111.0Q435 132 459.0 174.0Q483 216 483 276Z"/>
</g>
<g transform="translate(19.34,174.00) scale(0.01700,-0.01700)" fill="#7A80AD">
<path transform="translate(0,0)" d="M565 697 338 263V0H247V263L19 697H120L292 344L464 697Z"/>
<path transform="translate(594.0,0)" d="M43 275Q43 359 79.5 423.5Q116 488 179.0 522.5Q242 557 320 557Q398 557 461.0 522.5Q524 488 560.5 424.0Q597 360 597 275Q597 190 559.5 125.5Q522 61 458.0 26.0Q394 -9 316 -9Q239 -9 176.5 26.0Q114 61 78.5 125.5Q43 190 43 275ZM504 275Q504 341 478.0 387.0Q452 433 410.0 455.5Q368 478 319 478Q269 478 227.5 455.5Q186 433 161.0 387.0Q136 341 136 275Q136 208 160.5 162.0Q185 116 226.0 93.5Q267 71 316 71Q365 71 408.0 94.0Q451 117 477.5 163.0Q504 209 504 275Z"/>
<path transform="translate(1244.0,0)" d="M563 548V0H472V81Q446 39 399.5 15.5Q353 -8 297 -8Q233 -8 182.0 18.5Q131 45 101.5 98.0Q72 151 72 227V548H162V239Q162 158 203.0 114.5Q244 71 315 71Q388 71 430.0 116.0Q472 161 472 247V548Z"/>
<path transform="translate(1894.0,0)" d="M345 558V464H321Q168 464 168 298V0H77V548H168V459Q192 506 236.5 532.0Q281 558 345 558Z"/>
<path transform="translate(2554.0,0)" d="M958 323V0H868V310Q868 392 827.5 435.5Q787 479 718 479Q647 479 605.0 433.5Q563 388 563 302V0H473V310Q473 392 432.5 435.5Q392 479 323 479Q252 479 210.0 433.5Q168 388 168 302V0H77V548H168V469Q195 512 240.5 535.0Q286 558 341 558Q410 558 463.0 527.0Q516 496 542 436Q565 494 618.0 526.0Q671 558 736 558Q800 558 850.0 531.5Q900 505 929.0 452.0Q958 399 958 323Z"/>
<path transform="translate(3594.0,0)" d="M62 699Q62 725 80.0 743.0Q98 761 124 761Q149 761 166.5 743.0Q184 725 184 699Q184 673 166.5 655.0Q149 637 124 637Q98 637 80.0 655.0Q62 673 62 699ZM168 548V0H77V548Z"/>
<path transform="translate(3850.0,0)" d="M568 323V0H478V310Q478 392 437.0 435.5Q396 479 325 479Q253 479 210.5 434.0Q168 389 168 303V0H77V548H168V470Q195 512 241.5 535.0Q288 558 344 558Q444 558 506.0 497.5Q568 437 568 323Z"/>
<path transform="translate(4500.0,0)" d="M304 557Q368 557 423.0 527.5Q478 498 507 450V740H599V0H507V103Q480 54 427.0 22.5Q374 -9 303 -9Q230 -9 170.5 27.0Q111 63 77.0 128.0Q43 193 43 276Q43 360 77.0 423.5Q111 487 170.5 522.0Q230 557 304 557ZM321 478Q270 478 228.0 454.0Q186 430 161.0 384.0Q136 338 136 276Q136 213 161.0 166.5Q186 120 228.0 95.5Q270 71 321 71Q372 71 414.5 95.5Q457 120 482.0 166.5Q507 213 507 275Q507 337 482.0 383.0Q457 429 414.5 453.5Q372 478 321 478Z"/>
<path transform="translate(5186.0,0)" d="M171 126 59 -143H-2L71 126Z"/>
<path transform="translate(5671.0,0)" d="M574 240H136Q141 159 191.5 113.5Q242 68 314 68Q373 68 412.5 95.5Q452 123 468 169H566Q544 90 478.0 40.5Q412 -9 314 -9Q236 -9 174.5 26.0Q113 61 78.0 125.5Q43 190 43 275Q43 360 77.0 424.0Q111 488 172.5 522.5Q234 557 314 557Q392 557 452.0 523.0Q512 489 544.5 429.5Q577 370 577 295Q577 269 574 240ZM310 480Q241 480 192.5 436.0Q144 392 137 314H483Q483 366 460.0 403.5Q437 441 397.5 460.5Q358 480 310 480Z"/>
<path transform="translate(6301.0,0)" d="M363 0 233 204 108 0H13L190 272L13 548H116L246 345L370 548H465L289 277L466 0Z"/>
<path transform="translate(6790.0,0)" d="M188 473V150Q188 110 205.0 93.5Q222 77 264 77H331V0H249Q173 0 135.0 35.0Q97 70 97 150V473H26V548H97V686H188V548H331V473Z"/>
<path transform="translate(7164.0,0)" d="M574 240H136Q141 159 191.5 113.5Q242 68 314 68Q373 68 412.5 95.5Q452 123 468 169H566Q544 90 478.0 40.5Q412 -9 314 -9Q236 -9 174.5 26.0Q113 61 78.0 125.5Q43 190 43 275Q43 360 77.0 424.0Q111 488 172.5 522.5Q234 557 314 557Q392 557 452.0 523.0Q512 489 544.5 429.5Q577 370 577 295Q577 269 574 240ZM310 480Q241 480 192.5 436.0Q144 392 137 314H483Q483 366 460.0 403.5Q437 441 397.5 460.5Q358 480 310 480Z"/>
<path transform="translate(7794.0,0)" d="M568 323V0H478V310Q478 392 437.0 435.5Q396 479 325 479Q253 479 210.5 434.0Q168 389 168 303V0H77V548H168V470Q195 512 241.5 535.0Q288 558 344 558Q444 558 506.0 497.5Q568 437 568 323Z"/>
<path transform="translate(8444.0,0)" d="M304 557Q368 557 423.0 527.5Q478 498 507 450V740H599V0H507V103Q480 54 427.0 22.5Q374 -9 303 -9Q230 -9 170.5 27.0Q111 63 77.0 128.0Q43 193 43 276Q43 360 77.0 423.5Q111 487 170.5 522.0Q230 557 304 557ZM321 478Q270 478 228.0 454.0Q186 430 161.0 384.0Q136 338 136 276Q136 213 161.0 166.5Q186 120 228.0 95.5Q270 71 321 71Q372 71 414.5 95.5Q457 120 482.0 166.5Q507 213 507 275Q507 337 482.0 383.0Q457 429 414.5 453.5Q372 478 321 478Z"/>
<path transform="translate(9130.0,0)" d="M574 240H136Q141 159 191.5 113.5Q242 68 314 68Q373 68 412.5 95.5Q452 123 468 169H566Q544 90 478.0 40.5Q412 -9 314 -9Q236 -9 174.5 26.0Q113 61 78.0 125.5Q43 190 43 275Q43 360 77.0 424.0Q111 488 172.5 522.5Q234 557 314 557Q392 557 452.0 523.0Q512 489 544.5 429.5Q577 370 577 295Q577 269 574 240ZM310 480Q241 480 192.5 436.0Q144 392 137 314H483Q483 366 460.0 403.5Q437 441 397.5 460.5Q358 480 310 480Z"/>
<path transform="translate(9760.0,0)" d="M304 557Q368 557 423.0 527.5Q478 498 507 450V740H599V0H507V103Q480 54 427.0 22.5Q374 -9 303 -9Q230 -9 170.5 27.0Q111 63 77.0 128.0Q43 193 43 276Q43 360 77.0 423.5Q111 487 170.5 522.0Q230 557 304 557ZM321 478Q270 478 228.0 454.0Q186 430 161.0 384.0Q136 338 136 276Q136 213 161.0 166.5Q186 120 228.0 95.5Q270 71 321 71Q372 71 414.5 95.5Q457 120 482.0 166.5Q507 213 507 275Q507 337 482.0 383.0Q457 429 414.5 453.5Q372 478 321 478Z"/>
<path transform="translate(10446.0,0)" d="M44 56Q44 82 62.0 100.0Q80 118 106 118Q131 118 148.5 100.0Q166 82 166 56Q166 30 148.5 12.0Q131 -6 106 -6Q80 -6 62.0 12.0Q44 30 44 56Z"/>
</g>
</svg>